<?xml version="1.0" encoding="UTF-8"?>
<svg xmlns="http://www.w3.org/2000/svg" viewBox="-5.375 0 249.56 249.56">
  <defs>
    <style>
      .b {
        fill: #fff;
      }

      .c {
        fill: #5565f2;
      }

      .d {
        fill: #1d1d1b;
      }
    </style>
  </defs>
  <polygon class="b" points="56.24 26.92 18.97 152.09 52.73 194.99 158.01 214.12 159.3 213.52 173.03 201.08 201.34 181.16 221.03 37.24 188.68 19.89 146.96 43.8 113.67 43.8 81.79 13.33 56.24 26.92"/>
  <path class="c" d="m154.73,249.56l-102.98-30.62c-17.54-5.22-32.84-16.52-42.21-32.24-8.99-15.1-12.12-32.76-7.25-48.75L35.04,30.34c4.44-14.6,15.95-25.48,30.78-29.09,14.83-3.61,30.05.75,40.71,11.66l15.17,15.52c1.98,2.03,4.61,3.3,7.44,3.59l10.12,1.04c2.98.3,5.97-.5,8.39-2.27l23.19-16.92c14.09-10.28,32.15-11.11,47.12-2.17,14.98,8.94,22.81,25.23,20.44,42.51l-15.86,115.85c-3.72,27.16-28.02,46.64-55.35,44.32l-7.88-.85-4.57,36.03Zm-94.07-64.13l98.64,28.1,4.36-34.38,6.45.55c8.88.75,16.72-5.56,17.93-14.36l15.86-115.85c.62-4.53-2.12-6.9-3.8-7.9-1.68-1.01-5.06-2.29-8.76.4l-23.19,16.92c-9.38,6.84-20.9,9.97-32.45,8.77l-10.13-1.04c-10.9-1.12-21.12-6.05-28.78-13.89l-15.17-15.52c-2.76-2.82-5.93-2.57-7.57-2.17-1.64.4-4.57,1.64-5.72,5.41l-32.75,107.6c-2.74,8.99,1.86,20.61,10.42,28.99,4.08,3.99,9.16,6.8,14.65,8.36Z"/>
  <path class="d" d="m85.57,139.08c-5.24,0-9.49-4.25-9.49-9.49v-25.26c0-5.24,4.25-9.49,9.49-9.49s9.49,4.25,9.49,9.49v25.26c0,5.24-4.25,9.49-9.49,9.49Z"/>
  <path class="d" d="m158.25,144.01c-2.08,0-4.17-.68-5.92-2.08l-18.48-14.78c-2.32-1.86-3.64-4.7-3.56-7.67.08-2.97,1.55-5.74,3.97-7.47l21.56-15.4c4.26-3.05,10.19-2.06,13.24,2.21,3.05,4.27,2.06,10.19-2.21,13.24l-11.34,8.1,8.68,6.94c4.09,3.28,4.76,9.25,1.48,13.34-1.88,2.34-4.64,3.56-7.42,3.56Z"/>
</svg>
